<svg width="12" height="10" viewBox="0 0 12 10" fill="none" xmlns="http://www.w3.org/2000/svg">
<path d="M0.6 0C0.931875 0 1.2 0.319196 1.2 0.714286V6.42857H5.4V2.85714C5.4 2.46205 5.66813 2.14286 6 2.14286H10.2C11.1938 2.14286 12 3.10268 12 4.28571V9.28571C12 9.6808 11.7319 10 11.4 10C11.0681 10 10.8 9.6808 10.8 9.28571V8.57143H6.6H6H1.2V9.28571C1.2 9.6808 0.931875 10 0.6 10C0.268125 10 0 9.6808 0 9.28571V0.714286C0 0.319196 0.268125 0 0.6 0ZM3.3 2.14286C3.69782 2.14286 4.07936 2.33099 4.36066 2.66588C4.64196 3.00077 4.8 3.45497 4.8 3.92857C4.8 4.40217 4.64196 4.85638 4.36066 5.19126C4.07936 5.52615 3.69782 5.71429 3.3 5.71429C2.90218 5.71429 2.52064 5.52615 2.23934 5.19126C1.95804 4.85638 1.8 4.40217 1.8 3.92857C1.8 3.45497 1.95804 3.00077 2.23934 2.66588C2.52064 2.33099 2.90218 2.14286 3.3 2.14286Z" fill="#393939"/>
</svg>
