<svg width="15" height="10" viewBox="0 0 15 10" fill="none" xmlns="http://www.w3.org/2000/svg">
<path d="M4.01422 1.42857H5.24918V3.57143H2.60819L3.32057 1.87723C3.43306 1.60714 3.70723 1.42857 4.01422 1.42857ZM6.374 3.57143V1.42857H8.27683C8.50414 1.42857 8.71973 1.52679 8.86268 1.69643L10.4374 3.57143H6.374ZM12.3778 3.59375L10.0344 0.803571C9.60787 0.294643 8.9611 0 8.27683 0H4.01422C3.09327 0 2.26605 0.533482 1.92626 1.34598L0.951414 3.66964C0.393688 3.87946 0 4.39509 0 5V7.5C0 7.89509 0.335104 8.21429 0.749883 8.21429H1.53023C1.70833 9.22768 2.63396 10 3.74941 10C4.86487 10 5.7905 9.22768 5.9686 8.21429H9.0314C9.2095 9.22768 10.1351 10 11.2506 10C12.366 10 13.2917 9.22768 13.4698 8.21429H14.2501C14.6649 8.21429 15 7.89509 15 7.5V6.42857C15 4.97321 13.8564 3.77232 12.3801 3.59375H12.3778ZM10.1867 7.5C10.2344 7.36554 10.3097 7.24145 10.4082 7.13494C10.5068 7.02844 10.6265 6.94164 10.7605 6.87959C10.8946 6.81754 11.0402 6.78147 11.189 6.77349C11.3378 6.76551 11.4867 6.78576 11.6272 6.83308C11.7677 6.8804 11.8969 6.95384 12.0074 7.04913C12.1178 7.14443 12.2073 7.25967 12.2706 7.38818C12.3339 7.51669 12.3697 7.65589 12.376 7.79771C12.3824 7.93953 12.3591 8.08113 12.3075 8.21429C12.2597 8.34875 12.1844 8.47284 12.0859 8.57934C11.9874 8.68585 11.8676 8.77265 11.7336 8.8347C11.5996 8.89675 11.454 8.93281 11.3052 8.94079C11.1564 8.94878 11.0074 8.92852 10.8669 8.8812C10.7264 8.83388 10.5972 8.76044 10.4868 8.66515C10.3763 8.56986 10.2869 8.45461 10.2236 8.32611C10.1603 8.1976 10.1244 8.05839 10.1181 7.91658C10.1118 7.77476 10.1351 7.63316 10.1867 7.5ZM3.74941 6.78571C4.04774 6.78571 4.33384 6.8986 4.54479 7.09953C4.75573 7.30046 4.87424 7.57298 4.87424 7.85714C4.87424 8.1413 4.75573 8.41383 4.54479 8.61476C4.33384 8.81569 4.04774 8.92857 3.74941 8.92857C3.45109 8.92857 3.16499 8.81569 2.95404 8.61476C2.7431 8.41383 2.62459 8.1413 2.62459 7.85714C2.62459 7.57298 2.7431 7.30046 2.95404 7.09953C3.16499 6.8986 3.45109 6.78571 3.74941 6.78571Z" fill="#393939"/>
</svg>
