<svg width="12" height="10" viewBox="0 0 12 10" fill="none" xmlns="http://www.w3.org/2000/svg">
<path d="M1.5 2.22991C1.5 1.78795 1.87734 1.42857 2.34141 1.42857C2.56406 1.42857 2.77734 1.51339 2.93672 1.66295L3.31641 2.02455C2.82422 2.89286 2.90859 3.97768 3.57187 4.77009L3.53906 4.79911C3.31875 5.00893 3.31875 5.34821 3.53906 5.5558C3.75938 5.76339 4.11562 5.76562 4.33359 5.5558L8.08594 1.98661C8.30625 1.77679 8.30625 1.4375 8.08594 1.22991C7.86562 1.02232 7.50938 1.02009 7.29141 1.22991L7.26094 1.25893C6.42891 0.627232 5.2875 0.546875 4.37813 1.01562L3.99609 0.654018C3.55781 0.234375 2.9625 0 2.34141 0C1.04766 0 0 0.997768 0 2.22991V9.28571C0 9.6808 0.335156 10 0.75 10C1.16484 10 1.5 9.6808 1.5 9.28571V2.22991ZM6 7.14286C6.19891 7.14286 6.38968 7.0676 6.53033 6.93365C6.67098 6.79969 6.75 6.61801 6.75 6.42857C6.75 6.23913 6.67098 6.05745 6.53033 5.9235C6.38968 5.78954 6.19891 5.71429 6 5.71429C5.80109 5.71429 5.61032 5.78954 5.46967 5.9235C5.32902 6.05745 5.25 6.23913 5.25 6.42857C5.25 6.61801 5.32902 6.79969 5.46967 6.93365C5.61032 7.0676 5.80109 7.14286 6 7.14286ZM7.5 8.57143C7.5 8.38199 7.42098 8.20031 7.28033 8.06635C7.13968 7.9324 6.94891 7.85714 6.75 7.85714C6.55109 7.85714 6.36032 7.9324 6.21967 8.06635C6.07902 8.20031 6 8.38199 6 8.57143C6 8.76087 6.07902 8.94255 6.21967 9.0765C6.36032 9.21046 6.55109 9.28571 6.75 9.28571C6.94891 9.28571 7.13968 9.21046 7.28033 9.0765C7.42098 8.94255 7.5 8.76087 7.5 8.57143ZM7.5 5.71429C7.69891 5.71429 7.88968 5.63903 8.03033 5.50508C8.17098 5.37112 8.25 5.18944 8.25 5C8.25 4.81056 8.17098 4.62888 8.03033 4.49492C7.88968 4.36097 7.69891 4.28571 7.5 4.28571C7.30109 4.28571 7.11032 4.36097 6.96967 4.49492C6.82902 4.62888 6.75 4.81056 6.75 5C6.75 5.18944 6.82902 5.37112 6.96967 5.50508C7.11032 5.63903 7.30109 5.71429 7.5 5.71429ZM9 7.14286C9 6.95342 8.92098 6.77174 8.78033 6.63778C8.63968 6.50383 8.44891 6.42857 8.25 6.42857C8.05109 6.42857 7.86032 6.50383 7.71967 6.63778C7.57902 6.77174 7.5 6.95342 7.5 7.14286C7.5 7.3323 7.57902 7.51398 7.71967 7.64793C7.86032 7.78189 8.05109 7.85714 8.25 7.85714C8.44891 7.85714 8.63968 7.78189 8.78033 7.64793C8.92098 7.51398 9 7.3323 9 7.14286ZM9 4.28571C9.19891 4.28571 9.38968 4.21046 9.53033 4.0765C9.67098 3.94255 9.75 3.76087 9.75 3.57143C9.75 3.38199 9.67098 3.20031 9.53033 3.06635C9.38968 2.9324 9.19891 2.85714 9 2.85714C8.80109 2.85714 8.61032 2.9324 8.46967 3.06635C8.32902 3.20031 8.25 3.38199 8.25 3.57143C8.25 3.76087 8.32902 3.94255 8.46967 4.0765C8.61032 4.21046 8.80109 4.28571 9 4.28571ZM10.5 5.71429C10.5 5.52485 10.421 5.34316 10.2803 5.20921C10.1397 5.07525 9.94891 5 9.75 5C9.55109 5 9.36032 5.07525 9.21967 5.20921C9.07902 5.34316 9 5.52485 9 5.71429C9 5.90373 9.07902 6.08541 9.21967 6.21936C9.36032 6.35332 9.55109 6.42857 9.75 6.42857C9.94891 6.42857 10.1397 6.35332 10.2803 6.21936C10.421 6.08541 10.5 5.90373 10.5 5.71429ZM11.25 5C11.4489 5 11.6397 4.92475 11.7803 4.79079C11.921 4.65684 12 4.47515 12 4.28571C12 4.09627 11.921 3.91459 11.7803 3.78064C11.6397 3.64668 11.4489 3.57143 11.25 3.57143C11.0511 3.57143 10.8603 3.64668 10.7197 3.78064C10.579 3.91459 10.5 4.09627 10.5 4.28571C10.5 4.47515 10.579 4.65684 10.7197 4.79079C10.8603 4.92475 11.0511 5 11.25 5Z" fill="#393939"/>
</svg>
